# Blender v2.78 (sub 0) OBJ File: ''
# www.blender.org
mtllib lowresbunny.mtl
o bunny.000
v -2.055084 3.155547 -0.093124
v -2.404654 3.144280 0.543891
v -1.633037 3.227129 0.875570
v 1.026940 1.434151 -0.403362
v 1.073596 2.106616 0.417371
v 1.323618 1.141155 0.283546
v -2.397281 2.594690 0.089253
v -1.808955 1.312737 1.182866
v -1.537144 2.181647 0.978654
v -2.084224 1.967603 0.919350
v 0.517271 1.272262 1.388286
v 0.264742 1.897303 1.196778
v -0.563643 1.549006 1.529381
v 1.042817 0.675052 -0.209281
v -0.009428 0.806503 1.525506
v -0.897761 1.536180 1.157204
v -0.965547 1.897107 1.080787
v -1.291413 0.900576 1.027953
v -0.423529 0.454696 1.297453
v 0.462048 0.191003 1.171755
v -1.025632 2.500535 0.461636
v -1.159838 0.443599 1.048996
v -0.734341 0.585620 0.953910
v 1.078655 0.605386 0.889831
v 1.563845 1.017886 0.531593
v 0.176432 2.552907 0.849114
v -1.659537 0.152795 1.240507
v -1.333489 0.511548 0.424965
v 1.507695 0.603769 -0.072096
v -1.376364 3.212070 0.333389
v -0.560870 4.102932 -0.371068
v -1.715377 3.228195 0.092772
v -1.845896 2.209739 1.408881
v -2.103432 2.674242 1.422526
v -0.293391 3.435617 -0.367518
v -0.284302 3.912760 -0.776020
v 1.042872 1.646374 0.936194
v 0.308621 0.028120 -0.508117
v 0.578816 0.503069 -0.685607
v 0.464091 0.060560 0.108518
v -0.870329 0.120894 -0.476469
v -1.101868 0.055610 -0.827564
v 1.387965 0.267941 0.439496
v 0.116415 0.037015 0.214162
v -0.753021 0.122032 0.447329
v -1.338341 2.929671 -0.002650
v -1.813462 3.169277 -1.361374
v -1.762553 2.868277 -0.241233
v -0.485591 0.164085 1.069876
v -1.297670 0.041886 -0.354780
v -0.862042 0.528087 -0.267048
v -0.694643 0.057922 1.170694
v -2.148130 0.946036 0.235962
v -2.416239 1.532087 0.569498
v -2.034657 1.323977 -0.449387
v -1.340111 0.678430 -0.238714
v -0.892091 1.618687 -0.684601
v 0.390260 -0.059808 0.595174
v -0.925959 0.088877 0.885511
v -1.710781 0.055351 0.556175
v -1.640339 3.800020 -1.627057
v 0.705237 1.931248 -0.451205
v -1.327995 2.512602 -0.165041
v -2.434277 2.089256 0.392180
v 0.206797 2.674920 0.098500
v -2.042533 3.905293 -1.393657
v -2.437433 2.201774 1.155008
v -0.759292 0.159559 1.483670
v -0.232943 2.120929 -0.525040
v -0.748916 1.152575 -0.974454
v -0.509182 0.412171 -0.853064
v -0.862233 0.150421 -0.011126
v -2.005260 0.104812 0.013872
v -1.621459 2.082070 -0.428110
v -0.164005 1.523761 -1.016709
v 0.251038 0.131917 0.899621
v -1.132548 0.028609 0.672669
v -1.187690 0.040006 0.223009
v -1.090696 0.020494 -0.038468
v 0.603828 0.109695 0.302186
v -1.433753 0.013428 0.408986
v -1.013596 0.068193 -0.185324
vn -0.0926 0.9952 -0.0332
vn 0.9195 0.2768 -0.2791
vn -0.8216 0.3567 -0.4446
vn -0.2133 0.2862 0.9341
vn 0.2115 0.3634 0.9073
vn 0.8997 -0.0904 -0.4271
vn 0.1567 0.1119 0.9813
vn -0.0310 0.2379 0.9708
vn -0.0813 0.1917 0.9781
vn -0.0908 0.1897 0.9776
vn -0.0791 0.1922 0.9782
vn 0.0887 -0.2509 0.9639
vn -0.0324 -0.5166 0.8556
vn 0.2331 0.7076 0.6670
vn -0.2649 -0.0319 0.9637
vn 0.2652 -0.1578 0.9512
vn -0.2179 0.7733 0.5954
vn -0.2514 0.6808 0.6879
vn -0.4284 0.8777 0.2148
vn -0.3082 -0.2348 0.9219
vn -0.0835 0.4581 0.8850
vn 0.7239 0.5357 -0.4348
vn -0.3535 0.7575 0.5488
vn 0.4083 -0.1993 0.8908
vn 0.5619 0.2888 0.7752
vn 0.8433 0.3402 0.4161
vn 0.7075 0.2063 0.6760
vn 0.5691 0.5981 0.5643
vn 0.7643 -0.3045 0.5684
vn 0.5126 -0.1937 0.8365
vn 0.4063 0.4138 0.8147
vn 0.4128 0.4695 0.7805
vn 0.9226 0.0145 0.3856
vn 0.8247 -0.5363 -0.1797
vn -0.0703 -0.9713 0.2270
vn 0.7026 -0.2467 0.6675
vn 0.6566 -0.0110 0.7542
vn 0.5015 0.2055 0.8404
vn -0.0938 -0.9955 0.0131
vn 0.3474 -0.8191 -0.4564
vn 0.5096 -0.6294 0.5866
vn 0.9954 -0.0708 -0.0643
vn -0.0709 -0.9927 0.0975
vn -0.6931 0.6693 -0.2676
vn 0.1061 0.4133 0.9044
vn -0.9215 -0.2548 -0.2931
vn -0.1666 -0.3566 -0.9193
vn 0.6160 -0.7475 0.2485
vn 0.6009 -0.7320 -0.3211
vn -0.0998 -0.9946 -0.0271
vn -0.7747 0.6315 -0.0319
vn 0.9571 -0.2850 -0.0530
vn 0.7785 0.4631 -0.4237
vn 0.9691 -0.2361 0.0718
vn 0.8355 -0.3704 0.4058
vn 0.9466 0.2114 0.2436
vn 0.8862 0.1871 -0.4240
vn -0.8060 0.1557 0.5711
vn -0.0932 0.9833 0.1561
vn 0.4027 0.8632 0.3046
vn -0.2220 0.9747 0.0247
vn -0.9975 0.0367 -0.0606
vn 0.0503 0.9987 -0.0039
vn 0.7803 0.6234 0.0507
vn 0.6009 0.6948 -0.3951
vn 0.4999 0.8514 0.1586
vn -0.4152 -0.2443 -0.8763
vn -0.4158 0.7896 0.4512
vn -0.7201 -0.2309 0.6544
vn -0.7633 -0.2579 0.5923
vn -0.0922 0.1896 0.9775
vn -0.3122 0.7890 0.5291
vn -0.3804 -0.2372 0.8939
vn -0.7138 -0.0183 0.7001
vn -0.3303 0.7430 0.5820
vn -0.9374 -0.2592 0.2326
vn -0.1209 0.7763 0.6187
vn -0.6512 -0.7510 0.1094
vn -0.2957 0.9263 0.2335
vn -0.8273 0.3256 0.4578
vn 0.1910 0.6630 -0.7238
vn -0.9366 -0.2995 -0.1817
vn -0.8336 -0.3411 -0.4345
vn -0.7298 -0.6678 -0.1463
vn -0.9554 -0.1281 -0.2659
vn -0.9995 0.0293 -0.0085
vn -0.4927 -0.8678 0.0636
vn -0.6424 0.6487 0.4080
vn -0.6565 0.3762 -0.6538
vn -0.1020 0.8748 -0.4736
vn -0.5160 -0.7111 -0.4776
vn -0.4587 -0.0090 -0.8885
vn -0.9368 -0.1333 -0.3236
vn -0.5946 0.7783 0.2016
vn -0.4772 0.7619 -0.4380
vn 0.4599 0.2147 -0.8616
vn -0.0111 -0.9902 0.1393
vn 0.3100 0.5963 -0.7405
vn 0.2541 -0.9668 0.0271
vn 0.2103 -0.9763 -0.0505
vn 0.1242 -0.9850 0.1196
vn 0.3126 0.6238 -0.7163
vn -0.1177 0.9901 0.0759
vn 0.1107 0.1660 -0.9799
vn 0.4238 0.3377 -0.8404
vn 0.0390 0.7332 -0.6789
vn -0.0734 0.5559 -0.8280
vn -0.4973 0.1151 -0.8599
vn -0.4488 0.1312 -0.8839
vn 0.3821 0.2781 -0.8813
vn 0.1530 -0.5639 -0.8116
vn 0.7350 -0.1535 -0.6605
vn -0.0750 0.3900 -0.9178
vn -0.0019 0.1793 -0.9838
vn -0.6680 -0.3460 -0.6589
vn 0.4602 0.0473 -0.8866
vn 0.1650 -0.1936 -0.9671
vn -0.0872 -0.3926 -0.9156
vn -0.2377 0.1565 -0.9587
vn 0.1906 -0.4369 -0.8791
vn 0.1710 -0.3501 -0.9210
vn -0.6113 0.4687 -0.6376
vn -0.5305 -0.2012 -0.8234
vn 0.0261 -0.1535 -0.9878
vn -0.3297 0.4235 -0.8438
vn 0.0500 -0.6501 -0.7582
vn -0.2892 -0.8641 0.4119
vn 0.1133 -0.9855 0.1261
vn 0.1760 -0.9769 0.1209
vn 0.2435 -0.9059 -0.3466
vn -0.4888 -0.8634 0.1253
vn 0.3193 -0.6400 0.6989
vn -0.0787 -0.9969 -0.0087
vn -0.2092 -0.8322 0.5135
vn 0.1712 -0.9852 -0.0070
vn -0.6756 -0.5731 0.4639
vn -0.4196 -0.8813 -0.2174
vn 0.3214 -0.9016 0.2895
vn -0.1184 -0.9913 -0.0580
vn -0.4650 -0.7567 0.4596
vn -0.5857 -0.7793 0.2229
vn -0.1532 -0.9882 -0.0069
vn -0.4955 -0.7137 0.4950
vn 0.0775 -0.9965 0.0329
vn 0.0919 -0.9956 -0.0207
vn 0.1961 -0.9792 0.0528
vn -0.0742 -0.9871 0.1416
vn 0.1718 -0.9845 -0.0359
vn -0.8600 0.3741 -0.3469
vn 0.8925 -0.2043 0.4022
vn 0.2264 0.3223 0.9191
vn 0.1077 -0.9388 0.3271
vn -0.1181 -0.9195 0.3750
vn 0.4321 -0.9005 0.0496
vn -0.0174 -0.9897 0.1422
usemtl None.000
s 1
f 1//1 2//1 3//1
f 4//2 5//2 6//2
f 7//3 2//3 1//3
f 8//4 9//4 10//4
f 11//5 12//5 13//5
f 14//6 4//6 6//6
f 11//7 13//7 15//7
f 8//8 16//8 9//8
f 16//9 17//10 9//11
f 16//12 8//12 18//12
f 19//13 20//13 15//13
f 17//14 21//14 9//14
f 22//15 16//15 18//15
f 23//16 16//16 22//16
f 6//17 24//17 25//17
f 17//18 26//18 21//18
f 27//19 22//19 28//19
f 19//20 15//20 13//20
f 12//21 26//21 17//21
f 29//22 6//22 25//22
f 30//23 31//23 32//23
f 20//24 11//24 15//24
f 33//25 3//25 34//25
f 31//26 35//26 36//26
f 33//27 21//27 3//27
f 37//28 5//28 26//28
f 33//29 9//29 21//29
f 24//30 11//30 20//30
f 37//31 12//31 11//31
f 37//32 26//32 12//32
f 6//33 37//33 24//33
f 38//34 39//34 40//34
f 38//35 41//35 42//35
f 43//36 25//36 24//36
f 24//37 37//37 11//37
f 35//38 31//38 30//38
f 44//39 45//39 41//39
f 29//40 43//40 40//40
f 46//41 35//41 30//41
f 47//42 32//42 48//42
f 44//43 49//43 45//43
f 50//44 51//44 42//44
f 22//45 27//45 52//45
f 53//46 54//46 55//46
f 51//47 56//47 57//47
f 20//48 58//48 24//48
f 39//49 14//49 40//49
f 59//50 52//50 27//50
f 27//51 28//51 60//51
f 32//52 47//52 61//52
f 4//53 62//53 5//53
f 43//54 29//54 25//54
f 3//55 46//55 30//55
f 5//56 37//56 6//56
f 63//57 46//57 21//57
f 54//58 10//58 64//58
f 65//59 21//59 26//59
f 61//60 66//60 32//60
f 1//61 3//61 32//61
f 64//62 2//62 7//62
f 32//63 3//63 30//63
f 46//64 3//64 21//64
f 62//65 65//65 5//65
f 65//66 26//66 5//66
f 46//67 32//67 36//67
f 1//68 32//68 66//68
f 16//69 19//69 13//69
f 16//70 23//70 19//70
f 12//71 17//10 16//9
f 2//72 34//72 3//72
f 33//73 34//73 67//73
f 8//74 10//74 54//74
f 68//75 19//75 23//75
f 28//76 22//76 18//76
f 68//77 23//77 22//77
f 52//78 68//78 22//78
f 16//79 13//79 12//79
f 34//80 2//80 67//80
f 65//81 62//81 69//81
f 47//82 1//82 66//82
f 70//83 71//83 51//83
f 47//84 48//84 1//84
f 70//85 51//85 57//85
f 67//86 2//86 64//86
f 45//87 72//87 41//87
f 60//88 28//88 73//88
f 64//89 74//89 55//89
f 57//90 62//90 75//90
f 56//91 53//91 55//91
f 7//92 1//92 48//92
f 54//93 64//93 55//93
f 28//94 56//94 73//94
f 51//95 71//95 42//95
f 62//96 4//96 75//96
f 76//97 49//97 44//97
f 6//98 29//98 14//98
f 45//99 59//99 77//99
f 45//100 77//100 78//100
f 45//101 78//101 79//101
f 46//102 48//102 32//102
f 21//103 65//103 63//103
f 62//104 57//104 69//104
f 46//105 63//105 48//105
f 63//106 65//106 69//106
f 63//107 69//107 74//107
f 7//108 48//108 74//108
f 50//109 73//109 56//109
f 74//110 48//110 63//110
f 40//111 14//111 29//111
f 14//112 39//112 4//112
f 57//113 74//113 69//113
f 50//114 56//114 51//114
f 64//115 7//115 74//115
f 39//116 75//116 4//116
f 39//117 71//117 75//117
f 56//118 55//118 57//118
f 55//119 74//119 57//119
f 38//120 42//120 39//120
f 39//121 42//121 71//121
f 36//122 32//122 31//122
f 66//123 61//123 47//123
f 71//124 70//124 75//124
f 70//125 57//125 75//125
f 46//126 36//126 35//126
f 58//127 20//127 76//127
f 20//128 52//128 76//128
f 43//129 80//129 40//129
f 43//130 58//130 80//130
f 10//131 67//131 64//131
f 43//132 24//132 58//132
f 38//133 44//133 41//133
f 10//134 33//134 67//134
f 49//135 59//135 45//135
f 8//136 54//136 53//136
f 56//137 28//137 53//137
f 9//138 33//138 10//138
f 50//139 81//139 73//139
f 53//140 18//140 8//140
f 58//141 76//141 44//141
f 81//142 60//142 73//142
f 28//143 18//143 53//143
f 38//144 40//144 44//144
f 50//145 78//145 81//145
f 42//146 41//146 50//146
f 77//147 60//147 81//147
f 78//148 50//148 41//148
f 79//149 78//149 41//149
f 82//150 79//150 41//150
f 20//151 19//151 68//151
f 20//152 68//152 52//152
f 59//153 60//153 77//153
f 41//154 72//154 82//154
f 27//155 60//155 59//155
